<?xml version="1.0" standalone="no"?>
<!DOCTYPE svg PUBLIC "-//W3C//DTD SVG 20010904//EN"
 "http://www.w3.org/TR/2001/REC-SVG-20010904/DTD/svg10.dtd">
<svg version="1.0" xmlns="http://www.w3.org/2000/svg"
 width="256.000000pt" height="256.000000pt" viewBox="0 0 256.000000 256.000000"
 preserveAspectRatio="xMidYMid meet">
<metadata>
Created by potrace 1.14, written by Peter Selinger 2001-2017
</metadata>
<g transform="translate(0.000000,256.000000) scale(0.100000,-0.100000)"
fill="#000000" stroke="none">
<path d="M1097 2343 c-2 -2 -35 -6 -73 -8 -123 -9 -149 -13 -255 -41 -173 -45
-279 -107 -370 -216 -54 -65 -86 -124 -115 -208 -10 -30 -19 -57 -19 -60 0 -3
-6 -27 -13 -55 -6 -27 -13 -66 -16 -85 -2 -19 -5 -35 -6 -35 0 0 -4 -31 -8
-70 -13 -140 -4 -573 13 -655 3 -14 8 -41 11 -60 11 -65 46 -190 55 -196 5 -3
9 -13 9 -23 0 -10 22 -52 49 -93 50 -77 132 -156 203 -196 43 -24 207 -83 245
-87 12 -2 34 -6 50 -9 29 -7 50 -9 163 -22 36 -4 153 -8 260 -8 419 -2 664 58
823 204 49 44 137 165 137 187 0 5 7 21 15 37 14 27 52 160 61 216 2 14 6 34
8 45 19 87 26 454 12 600 -11 120 -17 168 -27 215 -5 25 -12 59 -15 75 -11 58
-66 185 -104 243 -119 177 -312 266 -655 298 -60 6 -434 12 -438 7z m454 -546
c30 -23 47 -62 44 -100 -6 -79 -46 -98 -213 -98 -70 -1 -136 -6 -147 -11 -24
-13 -48 -38 -55 -58 -7 -23 -8 -471 -1 -499 4 -13 18 -33 32 -43 28 -21 112
-37 149 -28 25 6 25 7 25 109 l0 103 -34 12 c-49 16 -78 73 -63 125 17 57 53
77 139 80 84 2 131 -14 154 -55 14 -25 16 -65 15 -276 -1 -245 -1 -247 -25
-272 -35 -37 -63 -43 -211 -40 -166 2 -221 20 -299 94 -93 90 -96 99 -96 440
l0 295 27 55 c40 82 123 152 202 171 54 12 339 10 357 -4z"/>
</g>
</svg>
